<svg width="254" height="121" viewBox="0 0 254 121" xmlns="http://www.w3.org/2000/svg" xmlns:xlink="http://www.w3.org/1999/xlink"><defs><rect id="b" x="9" y="91" width="222" height="8" rx="2"/><filter x="-12.6%" y="-287.5%" width="125.2%" height="800%" filterUnits="objectBoundingBox" id="a"><feOffset dy="5" in="SourceAlpha" result="shadowOffsetOuter1"/><feGaussianBlur stdDeviation="8.5" in="shadowOffsetOuter1" result="shadowBlurOuter1"/><feColorMatrix values="0 0 0 0 0.417171556 0 0 0 0 0.417171556 0 0 0 0 0.417171556 0 0 0 1 0" in="shadowBlurOuter1"/></filter></defs><g fill="none" fill-rule="evenodd"><use filter="url(#a)" xlink:href="#b" fill="#000" transform="translate(7)"/><path fill="#696969" d="M7 20h60v66H7z"/><path fill="#FFA000" d="M7 87h60v16H7z"/><path d="M27.285 55.23v3.773h2.426c1.265 0 1.983-.677 1.983-1.887 0-1.182-.766-1.887-2.037-1.887h-2.372zm0 4.867V64h-1.23v-9.864h3.766c1.9 0 3.144 1.162 3.144 2.94 0 1.373-.745 2.44-1.982 2.83L33.266 64h-1.442l-2.113-3.903h-2.426zm14.027 2.796V64h-6.111v-9.864h6.111v1.107h-4.88v3.165h4.627v1.094h-4.628v3.39h4.881zm1.757-1.47h1.244c.15 1.032 1.135 1.688 2.536 1.688 1.326 0 2.304-.717 2.304-1.695 0-.84-.615-1.374-1.976-1.716l-1.264-.328c-1.785-.451-2.557-1.258-2.557-2.66 0-1.674 1.401-2.809 3.486-2.809 1.908 0 3.33 1.135 3.432 2.728h-1.237c-.171-1.012-1.005-1.613-2.236-1.613-1.312 0-2.18.656-2.18 1.654 0 .772.54 1.217 1.9 1.565l1.032.274c2.044.512 2.864 1.305 2.864 2.755 0 1.811-1.428 2.966-3.684 2.966-2.092 0-3.534-1.107-3.664-2.81z" fill="#FFF"/><path fill="#B0B0B0" d="M68 87h60v16H68z"/><path fill="#696969" d="M68 0h60v86H68z"/><path d="M90.065 64.232c-2.68 0-4.354-1.982-4.354-5.16 0-3.186 1.668-5.169 4.348-5.169 2.078 0 3.698 1.306 3.992 3.206H92.8c-.328-1.271-1.381-2.07-2.741-2.07-1.894 0-3.083 1.558-3.083 4.032 0 2.475 1.189 4.027 3.09 4.027 1.373 0 2.42-.704 2.734-1.846h1.25c-.327 1.811-1.886 2.98-3.985 2.98zM102.527 64l-.99-2.823h-3.925L96.622 64h-1.293l3.637-9.864h1.217L103.819 64h-1.292zm-3.007-8.271l-1.545 4.402h3.199l-1.545-4.402h-.11zM109.343 64h-1.23v-8.757h-3.18v-1.107h7.588v1.107h-3.178V64z" fill="#FFF"/><g><path fill="#696969" d="M129 10h60v76h-60z"/><path fill="#FFA000" d="M129 87h60v16h-60z"/><path d="M145.439 61.423h1.244c.15 1.032 1.135 1.688 2.536 1.688 1.326 0 2.304-.717 2.304-1.695 0-.84-.615-1.374-1.976-1.716l-1.264-.328c-1.784-.451-2.557-1.258-2.557-2.66 0-1.674 1.401-2.809 3.486-2.809 1.908 0 3.33 1.135 3.432 2.728h-1.237c-.171-1.012-1.005-1.613-2.236-1.613-1.312 0-2.18.656-2.18 1.654 0 .772.54 1.217 1.9 1.565l1.032.274c2.044.512 2.865 1.305 2.865 2.755 0 1.811-1.43 2.966-3.685 2.966-2.092 0-3.534-1.107-3.664-2.81zm15.504 1.47V64h-6.111v-9.864h6.11v1.107h-4.88v3.165h4.628v1.094h-4.628v3.39h4.88zm8.64 1.107l-.99-2.823h-3.925l-.99 2.823h-1.293l3.637-9.864h1.217L170.875 64h-1.292zm-3.007-8.271l-1.545 4.402h3.199l-1.545-4.402h-.11z" fill="#FFF"/></g><g><path fill="#696969" d="M190 30h60v56h-60z"/><path fill="#FFA000" d="M190 87h60v16h-60z"/><path d="M208.741 54.136h3.384c2.926 0 4.655 1.825 4.655 4.928 0 3.11-1.722 4.936-4.655 4.936h-3.384v-9.864zm1.23 1.107v7.65h2.072c2.201 0 3.48-1.409 3.48-3.815 0-2.413-1.293-3.835-3.48-3.835h-2.071zm15.047 7.65V64h-6.112v-9.864h6.112v1.107h-4.881v3.165h4.628v1.094h-4.628v3.39h4.88zm4.43 1.107v-8.497h-.11l-2.509 1.818v-1.299l2.625-1.886h1.224V64h-1.23z" fill="#FFF"/></g></g></svg>