<svg width="609" height="86" viewBox="0 0 609 86" xmlns="http://www.w3.org/2000/svg"><g fill="none" fill-rule="evenodd"><g opacity=".121"><path fill="#4D97B9" d="M0 30h60v56H0z"/><path d="M24.196 64h-3.848v-9.864h3.773c1.812 0 2.919.95 2.919 2.46 0 1.026-.752 1.956-1.702 2.127v.109c1.347.17 2.201 1.094 2.201 2.4 0 1.736-1.244 2.768-3.343 2.768zm-2.618-8.777v3.165h1.969c1.49 0 2.249-.534 2.249-1.58 0-1.004-.711-1.585-1.935-1.585h-2.283zm0 7.69h2.434c1.483 0 2.262-.601 2.262-1.743 0-1.142-.806-1.723-2.378-1.723h-2.318v3.466zM30.78 64h-1.23v-9.864h1.23V64zm6.31 0h-1.23v-8.757h-3.18v-1.107h7.589v1.107h-3.18V64z" fill="#FFF"/></g><g opacity=".683"><path fill="#619733" d="M183 20h60v66h-60z"/><path d="M203.285 55.23v3.773h2.426c1.265 0 1.983-.677 1.983-1.887 0-1.182-.766-1.887-2.037-1.887h-2.372zm0 4.867V64h-1.23v-9.864h3.766c1.9 0 3.144 1.162 3.144 2.94 0 1.373-.745 2.44-1.982 2.83L209.266 64h-1.442l-2.113-3.903h-2.426zm14.027 2.796V64h-6.111v-9.864h6.111v1.107h-4.88v3.165h4.627v1.094h-4.628v3.39h4.881zm1.757-1.47h1.244c.15 1.032 1.135 1.688 2.536 1.688 1.326 0 2.304-.717 2.304-1.695 0-.84-.615-1.374-1.976-1.716l-1.264-.328c-1.785-.451-2.557-1.258-2.557-2.66 0-1.674 1.401-2.809 3.486-2.809 1.908 0 3.33 1.135 3.432 2.728h-1.237c-.171-1.012-1.005-1.613-2.236-1.613-1.312 0-2.18.656-2.18 1.654 0 .772.54 1.217 1.9 1.565l1.032.274c2.044.512 2.864 1.305 2.864 2.755 0 1.811-1.428 2.966-3.684 2.966-2.092 0-3.534-1.107-3.664-2.81z" fill="#FFF"/></g><path fill="#619733" d="M244 0h60v86h-60z"/><path d="M266.065 64.232c-2.68 0-4.354-1.982-4.354-5.16 0-3.186 1.668-5.169 4.348-5.169 2.078 0 3.698 1.306 3.992 3.206H268.8c-.328-1.271-1.381-2.07-2.741-2.07-1.894 0-3.083 1.558-3.083 4.032 0 2.475 1.189 4.027 3.09 4.027 1.373 0 2.42-.704 2.734-1.846h1.25c-.327 1.811-1.886 2.98-3.985 2.98zM278.527 64l-.99-2.823h-3.925l-.99 2.823h-1.293l3.637-9.864h1.217L279.819 64h-1.292zm-3.007-8.271l-1.545 4.402h3.199l-1.545-4.402h-.11zM285.343 64h-1.23v-8.757h-3.18v-1.107h7.588v1.107h-3.178V64z" fill="#FFF"/><g opacity=".253"><path fill="#619733" d="M61 30h60v56H61z"/><path d="M79.797 64.232c-2.68 0-4.354-1.982-4.354-5.16 0-3.186 1.668-5.169 4.348-5.169 2.078 0 3.698 1.306 3.992 3.206h-1.251c-.328-1.271-1.381-2.07-2.741-2.07-1.894 0-3.083 1.558-3.083 4.032 0 2.475 1.189 4.027 3.09 4.027 1.373 0 2.42-.704 2.734-1.846h1.25c-.327 1.811-1.886 2.98-3.985 2.98zM87.064 64h-1.217v-9.864h1.196l5.353 7.676h.11v-7.676h1.216V64h-1.196l-5.353-7.65h-.109V64zm17.452-3.814c0 2.433-1.668 4.046-4.19 4.046-2.728 0-4.471-2.01-4.471-5.168 0-3.117 1.77-5.16 4.47-5.16 2.188 0 3.774 1.216 4.13 3.171h-1.251c-.424-1.333-1.415-2.037-2.878-2.037-1.955 0-3.206 1.572-3.206 4.026 0 2.489 1.23 4.034 3.213 4.034 1.763 0 2.96-1.128 2.96-2.796v-.24h-2.776v-1.08h4v1.204z" fill="#FFF"/></g><g opacity=".616"><path fill="#619733" d="M305 10h60v76h-60z"/><path d="M321.439 61.423h1.244c.15 1.032 1.135 1.688 2.536 1.688 1.326 0 2.304-.717 2.304-1.695 0-.84-.615-1.374-1.976-1.716l-1.264-.328c-1.784-.451-2.557-1.258-2.557-2.66 0-1.674 1.401-2.809 3.486-2.809 1.908 0 3.33 1.135 3.432 2.728h-1.237c-.171-1.012-1.005-1.613-2.236-1.613-1.312 0-2.18.656-2.18 1.654 0 .772.54 1.217 1.9 1.565l1.032.274c2.044.512 2.865 1.305 2.865 2.755 0 1.811-1.43 2.966-3.685 2.966-2.092 0-3.534-1.107-3.664-2.81zm15.504 1.47V64h-6.111v-9.864h6.11v1.107h-4.88v3.165h4.628v1.094h-4.628v3.39h4.88zm8.64 1.107l-.99-2.823h-3.925l-.99 2.823h-1.293l3.637-9.864h1.217L346.875 64h-1.292zm-3.007-8.271l-1.545 4.402h3.199l-1.545-4.402h-.11z" fill="#FFF"/></g><g opacity=".528"><path fill="#7948A2" d="M366 30h60v56h-60z"/><path d="M384.741 54.136h3.384c2.926 0 4.655 1.825 4.655 4.928 0 3.11-1.722 4.936-4.655 4.936h-3.384v-9.864zm1.23 1.107v7.65h2.072c2.201 0 3.48-1.409 3.48-3.815 0-2.413-1.293-3.835-3.48-3.835h-2.071zm15.047 7.65V64h-6.112v-9.864h6.112v1.107h-4.881v3.165h4.628v1.094h-4.628v3.39h4.88zm4.43 1.107v-8.497h-.11l-2.509 1.818v-1.299l2.625-1.886h1.224V64h-1.23z" fill="#FFF"/></g><g opacity=".357"><path fill="#7948A2" d="M427 20h60v66h-60z"/><path d="M442.777 54.136h3.384c2.926 0 4.655 1.825 4.655 4.928 0 3.11-1.722 4.936-4.655 4.936h-3.384v-9.864zm1.23 1.107v7.65h2.072c2.201 0 3.48-1.409 3.48-3.815 0-2.413-1.292-3.835-3.48-3.835h-2.071zm15.047 7.65V64h-6.112v-9.864h6.112v1.107h-4.881v3.165h4.628v1.094h-4.628v3.39h4.88zm2.01-5.982c0-1.75 1.326-3.008 3.158-3.008 1.77 0 3.124 1.203 3.124 2.769 0 1.025-.465 1.825-2.085 3.561l-2.372 2.55v.11h4.62V64h-6.384v-.848l3.411-3.725c1.272-1.381 1.58-1.914 1.58-2.707 0-.985-.842-1.743-1.928-1.743-1.156 0-1.935.772-1.935 1.934v.007h-1.19v-.007z" fill="#FFF"/></g><g opacity=".153"><path fill="#696A6C" d="M488 30h60v56h-60z"/><path d="M510.481 55.23v3.773h2.427c1.264 0 1.982-.677 1.982-1.887 0-1.182-.765-1.887-2.037-1.887h-2.372zm0 4.867V64h-1.23v-9.864h3.766c1.9 0 3.145 1.162 3.145 2.94 0 1.373-.745 2.44-1.983 2.83L516.462 64h-1.442l-2.112-3.903h-2.427zm14.027 2.796V64h-6.111v-9.864h6.111v1.107h-4.88v3.165h4.627v1.094h-4.628v3.39h4.881zm4.43 1.107v-8.497h-.11l-2.508 1.818v-1.299l2.625-1.886h1.223V64h-1.23z" fill="#FFF"/></g><g opacity=".064"><path fill="#696A6C" d="M549 30h60v56h-60z"/><path d="M568.983 64h-1.23v-9.864h1.23V64zm3.733 0h-1.217v-9.864h1.196l5.353 7.676h.11v-7.676h1.216V64h-1.196l-5.353-7.65h-.11V64zm12.968 0h-1.23v-8.757h-3.18v-1.107h7.588v1.107h-3.178V64z" fill="#FFF"/></g><g opacity=".432"><path fill="#4D97B9" d="M122 30h60v56h-60z"/><path d="M144.209 64.232c-2.68 0-4.355-1.982-4.355-5.16 0-3.186 1.668-5.169 4.348-5.169 2.078 0 3.698 1.306 3.992 3.206h-1.25c-.329-1.271-1.382-2.07-2.742-2.07-1.893 0-3.083 1.558-3.083 4.032 0 2.475 1.19 4.027 3.09 4.027 1.374 0 2.42-.704 2.734-1.846h1.251c-.328 1.811-1.886 2.98-3.985 2.98zm7.28-9.003v3.774h2.427c1.265 0 1.982-.677 1.982-1.887 0-1.182-.765-1.887-2.037-1.887h-2.372zm0 4.868V64h-1.23v-9.864h3.766c1.9 0 3.145 1.162 3.145 2.94 0 1.373-.745 2.44-1.982 2.83L157.47 64h-1.443l-2.112-3.903h-2.427zM163.2 64h-1.23v-8.757h-3.179v-1.107h7.588v1.107h-3.179V64z" fill="#FFF"/></g></g></svg>