<svg viewBox="0 0 609 394" xmlns="http://www.w3.org/2000/svg"><g fill="none" fill-rule="evenodd"><path fill="#FFF" d="M0 0h609v394H0z"/><path fill="#4D97B9" d="M122 168h60v56h-60z"/><path d="M144.209 202.232c-2.68 0-4.355-1.982-4.355-5.16 0-3.186 1.668-5.169 4.348-5.169 2.078 0 3.698 1.306 3.992 3.206h-1.25c-.329-1.271-1.382-2.07-2.742-2.07-1.893 0-3.083 1.558-3.083 4.032 0 2.475 1.19 4.027 3.09 4.027 1.374 0 2.42-.704 2.734-1.846h1.251c-.328 1.811-1.886 2.98-3.985 2.98zm7.28-9.003v3.774h2.427c1.265 0 1.982-.677 1.982-1.887 0-1.182-.765-1.887-2.037-1.887h-2.372zm0 4.868V202h-1.23v-9.864h3.766c1.9 0 3.145 1.162 3.145 2.94 0 1.373-.745 2.44-1.982 2.83L157.47 202h-1.443l-2.112-3.903h-2.427zM163.2 202h-1.23v-8.757h-3.179v-1.107h7.588v1.107h-3.179V202z" fill="#FFF"/><path fill="#4D97B9" d="M0 168h60v56H0z"/><path d="M24.196 202h-3.848v-9.864h3.773c1.812 0 2.919.95 2.919 2.46 0 1.026-.752 1.956-1.702 2.127v.109c1.347.17 2.201 1.094 2.201 2.4 0 1.736-1.244 2.768-3.343 2.768zm-2.618-8.777v3.165h1.969c1.49 0 2.249-.534 2.249-1.58 0-1.004-.711-1.585-1.935-1.585h-2.283zm0 7.69h2.434c1.483 0 2.262-.601 2.262-1.743 0-1.142-.806-1.723-2.378-1.723h-2.318v3.466zM30.78 202h-1.23v-9.864h1.23V202zm6.31 0h-1.23v-8.757h-3.18v-1.107h7.589v1.107h-3.18V202z" fill="#FFF"/><path fill="#619733" d="M183 158h60v66h-60z"/><path fill="#FFA000" d="M183 225h60v16h-60z"/><path d="M203.285 193.23v3.773h2.426c1.265 0 1.983-.677 1.983-1.887 0-1.182-.766-1.887-2.037-1.887h-2.372zm0 4.867V202h-1.23v-9.864h3.766c1.9 0 3.144 1.162 3.144 2.94 0 1.373-.745 2.44-1.982 2.83l2.283 4.094h-1.442l-2.113-3.903h-2.426zm14.027 2.796V202h-6.111v-9.864h6.111v1.107h-4.88v3.165h4.627v1.094h-4.628v3.39h4.881zm1.757-1.47h1.244c.15 1.032 1.135 1.688 2.536 1.688 1.326 0 2.304-.717 2.304-1.695 0-.84-.615-1.374-1.976-1.716l-1.264-.328c-1.785-.451-2.557-1.258-2.557-2.66 0-1.674 1.401-2.809 3.486-2.809 1.908 0 3.33 1.135 3.432 2.728h-1.237c-.171-1.012-1.005-1.613-2.236-1.613-1.312 0-2.18.656-2.18 1.654 0 .772.54 1.217 1.9 1.565l1.032.274c2.044.512 2.864 1.305 2.864 2.755 0 1.811-1.428 2.966-3.684 2.966-2.092 0-3.534-1.107-3.664-2.81z" fill="#FFF"/><path fill="#B0B0B0" d="M244 225h60v16h-60z"/><path fill="#619733" d="M244 138h60v86h-60z"/><path d="M266.065 202.232c-2.68 0-4.354-1.982-4.354-5.16 0-3.186 1.668-5.169 4.348-5.169 2.078 0 3.698 1.306 3.992 3.206H268.8c-.328-1.271-1.381-2.07-2.741-2.07-1.894 0-3.083 1.558-3.083 4.032 0 2.475 1.189 4.027 3.09 4.027 1.373 0 2.42-.704 2.734-1.846h1.25c-.327 1.811-1.886 2.98-3.985 2.98zm12.462-.232l-.99-2.823h-3.925l-.99 2.823h-1.293l3.637-9.864h1.217l3.636 9.864h-1.292zm-3.007-8.271l-1.545 4.402h3.199l-1.545-4.402h-.11zm9.823 8.271h-1.23v-8.757h-3.18v-1.107h7.588v1.107h-3.178V202z" fill="#FFF"/><path fill="#619733" d="M61 168h60v56H61z"/><path d="M79.797 202.232c-2.68 0-4.354-1.982-4.354-5.16 0-3.186 1.668-5.169 4.348-5.169 2.078 0 3.698 1.306 3.992 3.206h-1.251c-.328-1.271-1.381-2.07-2.741-2.07-1.894 0-3.083 1.558-3.083 4.032 0 2.475 1.189 4.027 3.09 4.027 1.373 0 2.42-.704 2.734-1.846h1.25c-.327 1.811-1.886 2.98-3.985 2.98zm7.267-.232h-1.217v-9.864h1.196l5.353 7.677h.11v-7.677h1.216V202h-1.196l-5.353-7.65h-.109V202zm17.452-3.814c0 2.433-1.668 4.046-4.19 4.046-2.728 0-4.471-2.01-4.471-5.168 0-3.117 1.77-5.16 4.47-5.16 2.188 0 3.774 1.216 4.13 3.171h-1.251c-.424-1.333-1.415-2.037-2.878-2.037-1.955 0-3.206 1.572-3.206 4.026 0 2.489 1.23 4.034 3.213 4.034 1.763 0 2.96-1.128 2.96-2.796v-.24h-2.776v-1.08h4v1.204z" fill="#FFF"/><g><path fill="#619733" d="M305 148h60v76h-60z"/><path fill="#FFA000" d="M305 225h60v16h-60z"/><path d="M321.439 199.423h1.244c.15 1.032 1.135 1.688 2.536 1.688 1.326 0 2.304-.717 2.304-1.695 0-.84-.615-1.374-1.976-1.716l-1.264-.328c-1.784-.451-2.557-1.258-2.557-2.66 0-1.674 1.401-2.809 3.486-2.809 1.908 0 3.33 1.135 3.432 2.728h-1.237c-.171-1.012-1.005-1.613-2.236-1.613-1.312 0-2.18.656-2.18 1.654 0 .772.54 1.217 1.9 1.565l1.032.274c2.044.512 2.865 1.305 2.865 2.755 0 1.811-1.43 2.966-3.685 2.966-2.092 0-3.534-1.107-3.664-2.81zm15.504 1.47V202h-6.111v-9.864h6.11v1.107h-4.88v3.165h4.628v1.094h-4.628v3.39h4.88zm8.64 1.107l-.99-2.823h-3.925l-.99 2.823h-1.293l3.637-9.864h1.217l3.636 9.864h-1.292zm-3.007-8.271l-1.545 4.402h3.199l-1.545-4.402h-.11z" fill="#FFF"/></g><g><path fill="#7948A2" d="M366 168h60v56h-60z"/><path fill="#FFA000" d="M366 225h60v35h-60z"/><path d="M384.741 192.136h3.384c2.926 0 4.655 1.825 4.655 4.928 0 3.11-1.722 4.936-4.655 4.936h-3.384v-9.864zm1.23 1.107v7.65h2.072c2.201 0 3.48-1.409 3.48-3.815 0-2.413-1.293-3.835-3.48-3.835h-2.071zm15.047 7.65V202h-6.112v-9.864h6.112v1.107h-4.881v3.165h4.628v1.094h-4.628v3.39h4.88zm4.43 1.107v-8.497h-.11l-2.509 1.818v-1.299l2.625-1.886h1.224V202h-1.23z" fill="#FFF"/></g><g><path fill="#7948A2" d="M427 158h60v66h-60z"/><path d="M442.777 192.136h3.384c2.926 0 4.655 1.825 4.655 4.928 0 3.11-1.722 4.936-4.655 4.936h-3.384v-9.864zm1.23 1.107v7.65h2.072c2.201 0 3.48-1.409 3.48-3.815 0-2.413-1.292-3.835-3.48-3.835h-2.071zm15.047 7.65V202h-6.112v-9.864h6.112v1.107h-4.881v3.165h4.628v1.094h-4.628v3.39h4.88zm2.01-5.982c0-1.75 1.326-3.008 3.158-3.008 1.77 0 3.124 1.203 3.124 2.769 0 1.025-.465 1.825-2.085 3.561l-2.372 2.55v.11h4.62V202h-6.384v-.848l3.411-3.725c1.272-1.381 1.58-1.914 1.58-2.707 0-.985-.842-1.743-1.928-1.743-1.156 0-1.935.772-1.935 1.934v.007h-1.19v-.007z" fill="#FFF"/></g><g><path fill="#696A6C" d="M488 168h60v56h-60z"/><path fill="#FFA000" d="M488 225h60v16h-60z"/><path d="M510.481 193.23v3.773h2.427c1.264 0 1.982-.677 1.982-1.887 0-1.182-.765-1.887-2.037-1.887h-2.372zm0 4.867V202h-1.23v-9.864h3.766c1.9 0 3.145 1.162 3.145 2.94 0 1.373-.745 2.44-1.983 2.83l2.283 4.094h-1.442l-2.112-3.903h-2.427zm14.027 2.796V202h-6.111v-9.864h6.111v1.107h-4.88v3.165h4.627v1.094h-4.628v3.39h4.881zm4.43 1.107v-8.497h-.11l-2.508 1.818v-1.299l2.625-1.886h1.223V202h-1.23z" fill="#FFF"/></g><g><path fill="#696A6C" d="M549 168h60v56h-60z"/><path d="M568.983 202h-1.23v-9.864h1.23V202zm3.733 0h-1.217v-9.864h1.196l5.353 7.677h.11v-7.677h1.216V202h-1.196l-5.353-7.65h-.11V202zm12.968 0h-1.23v-8.757h-3.18v-1.107h7.588v1.107h-3.178V202z" fill="#FFF"/></g><g><g transform="translate(120 300)"><rect fill="#1E4626" width="46" height="22" rx="11"/><circle fill="#619733" cx="35" cy="11" r="10"/></g><path d="M179.194 314.838c.46 0 .839-.048 1.135-.144.529-.177.962-.52 1.299-1.025.269-.406.462-.925.581-1.559.068-.378.103-.729.103-1.052 0-1.245-.248-2.21-.742-2.899-.495-.688-1.291-1.032-2.39-1.032h-2.412v7.71h2.426zm-3.794-8.88h4.068c1.38 0 2.452.49 3.213 1.47.679.884 1.018 2.016 1.018 3.397 0 1.067-.2 2.03-.601 2.892-.707 1.522-1.921 2.283-3.644 2.283H175.4v-10.042zm9.885 2.755h1.251V316h-1.25v-7.287zm0-2.755h1.251v1.395h-1.25v-1.395zm3.842 7.745c.036.41.139.725.308.943.31.397.847.595 1.613.595.456 0 .857-.099 1.203-.297.346-.198.52-.505.52-.92a.786.786 0 0 0-.417-.717c-.178-.1-.53-.217-1.053-.349l-.978-.246c-.624-.155-1.084-.328-1.38-.52-.53-.332-.794-.793-.794-1.38 0-.693.25-1.254.749-1.682.499-.429 1.17-.643 2.013-.643 1.103 0 1.898.324 2.386.971.305.41.453.852.444 1.326h-1.162a1.424 1.424 0 0 0-.294-.759c-.282-.323-.772-.485-1.47-.485-.464 0-.816.089-1.056.267a.836.836 0 0 0-.359.704c0 .319.158.574.472.765.182.114.451.215.807.301l.813.198c.884.215 1.477.422 1.778.622.478.315.717.81.717 1.484 0 .652-.247 1.214-.741 1.688-.495.474-1.248.711-2.26.711-1.089 0-1.86-.247-2.314-.741-.453-.495-.696-1.107-.728-1.836h1.183zm11.105-4.635c.517.401.828 1.092.933 2.072h-1.196c-.073-.452-.24-.826-.5-1.125-.259-.298-.676-.448-1.25-.448-.784 0-1.345.383-1.682 1.149-.219.497-.328 1.11-.328 1.839 0 .733.155 1.35.465 1.852.31.502.797.752 1.463.752.51 0 .915-.156 1.213-.468.299-.312.505-.74.619-1.282h1.196c-.137.97-.478 1.68-1.025 2.13-.547.448-1.247.673-2.099.673-.957 0-1.72-.35-2.29-1.05-.57-.699-.855-1.573-.855-2.621 0-1.285.313-2.285.937-3.001.624-.715 1.42-1.073 2.386-1.073.825 0 1.496.2 2.013.601zm6.747 5.213c.303-.618.455-1.305.455-2.061 0-.684-.11-1.24-.329-1.668-.346-.675-.943-1.012-1.79-1.012-.753 0-1.3.287-1.641.861-.342.575-.513 1.267-.513 2.078 0 .78.171 1.43.513 1.949.342.52.884.779 1.627.779.816 0 1.375-.309 1.678-.926zm.762-4.87c.652.628.978 1.553.978 2.775 0 1.18-.287 2.155-.862 2.925-.574.77-1.465 1.156-2.672 1.156-1.008 0-1.807-.341-2.4-1.022-.592-.682-.889-1.597-.889-2.745 0-1.23.313-2.21.937-2.94.624-.729 1.463-1.093 2.516-1.093.943 0 1.74.314 2.392.943zm3.042-.732l1.955 5.96 2.044-5.96h1.347L213.367 316h-1.312l-2.7-7.321h1.428zm10.958.201c.488.244.86.56 1.114.947.247.37.41.8.493 1.292.073.337.109.875.109 1.613h-5.366c.023.743.198 1.34.526 1.788.328.449.836.673 1.525.673.642 0 1.155-.212 1.538-.635.218-.246.373-.531.465-.855h1.21c-.032.269-.138.569-.318.9-.18.33-.382.6-.605.81-.374.364-.837.61-1.388.737-.296.073-.631.11-1.005.11-.911 0-1.684-.332-2.317-.995-.634-.663-.95-1.591-.95-2.786 0-1.175.318-2.13.957-2.864.638-.733 1.472-1.1 2.501-1.1.52 0 1.024.122 1.511.365zm.451 2.875c-.05-.533-.166-.96-.348-1.278-.337-.593-.9-.89-1.689-.89-.565 0-1.039.205-1.422.613-.382.408-.585.926-.608 1.555h4.067zm2.81-3.076h1.169v1.264c.096-.246.33-.545.704-.899.374-.353.804-.53 1.292-.53.023 0 .062.003.116.007l.28.028v1.299a1.838 1.838 0 0 0-.403-.035c-.62 0-1.096.2-1.429.599a2.088 2.088 0 0 0-.499 1.377V316h-1.23v-7.321z" fill="#383838"/><g transform="translate(280 300)"><rect fill="#311B44" width="46" height="22" rx="11"/><circle fill="#7948A2" cx="35" cy="11" r="10"/></g><path d="M338.922 314.838c.46 0 .838-.048 1.135-.144.528-.177.961-.52 1.298-1.025.27-.406.463-.925.582-1.559.068-.378.102-.729.102-1.052 0-1.245-.247-2.21-.742-2.899-.494-.688-1.29-1.032-2.389-1.032h-2.413v7.71h2.427zm-3.794-8.88h4.067c1.381 0 2.452.49 3.213 1.47.68.884 1.019 2.016 1.019 3.397 0 1.067-.2 2.03-.602 2.892-.706 1.522-1.92 2.283-3.643 2.283h-4.054v-10.042zm14.444 2.922c.488.244.86.56 1.115.947.246.37.41.8.492 1.292.073.337.11.875.11 1.613h-5.367c.023.743.198 1.34.526 1.788.328.449.837.673 1.525.673.642 0 1.155-.212 1.538-.635.218-.246.373-.531.465-.855h1.21c-.032.269-.138.569-.318.9-.18.33-.382.6-.605.81-.374.364-.837.61-1.388.737-.296.073-.631.11-1.005.11-.911 0-1.684-.332-2.317-.995-.634-.663-.95-1.591-.95-2.786 0-1.175.319-2.13.957-2.864.638-.733 1.472-1.1 2.502-1.1.52 0 1.023.122 1.51.365zm.451 2.875c-.05-.533-.166-.96-.348-1.278-.337-.593-.9-.89-1.689-.89-.565 0-1.039.205-1.422.613-.382.408-.585.926-.608 1.555h4.067zm3.507 1.948c.037.41.14.725.308.943.31.397.848.595 1.613.595.456 0 .857-.099 1.203-.297.347-.198.52-.505.52-.92a.786.786 0 0 0-.417-.717c-.178-.1-.529-.217-1.053-.349l-.977-.246c-.625-.155-1.085-.328-1.381-.52-.529-.332-.793-.793-.793-1.38 0-.693.25-1.254.748-1.682.5-.429 1.17-.643 2.013-.643 1.103 0 1.899.324 2.386.971.306.41.454.852.445 1.326h-1.163a1.424 1.424 0 0 0-.294-.759c-.282-.323-.772-.485-1.47-.485-.464 0-.816.089-1.055.267a.836.836 0 0 0-.36.704c0 .319.158.574.472.765.183.114.452.215.807.301l.814.198c.884.215 1.476.422 1.777.622.478.315.718.81.718 1.484 0 .652-.248 1.214-.742 1.688-.495.474-1.248.711-2.26.711-1.089 0-1.86-.247-2.313-.741-.454-.495-.696-1.107-.728-1.836h1.182zm6.269-4.99h1.25V316h-1.25v-7.287zm0-2.755h1.25v1.395h-1.25v-1.395zm7.198 3.015c.232.16.47.392.711.697v-.923h1.135v6.658c0 .93-.137 1.664-.41 2.201-.51.994-1.475 1.49-2.892 1.49-.788 0-1.451-.176-1.99-.53-.537-.352-.838-.905-.902-1.657h1.251c.06.328.178.581.356.759.278.273.715.41 1.312.41.944 0 1.561-.333 1.853-.998.173-.392.253-1.091.24-2.099a2.414 2.414 0 0 1-.89.834c-.346.183-.804.274-1.374.274-.793 0-1.486-.282-2.081-.844-.595-.563-.892-1.494-.892-2.793 0-1.226.3-2.183.899-2.87.599-.69 1.323-1.033 2.17-1.033.574 0 1.076.141 1.504.424zm.15 1.319a1.796 1.796 0 0 0-1.428-.656c-.866 0-1.459.405-1.778 1.217-.168.432-.253 1-.253 1.702 0 .825.168 1.452.503 1.883.335.43.785.646 1.35.646.884 0 1.506-.399 1.866-1.196.2-.451.301-.978.301-1.58 0-.906-.187-1.579-.56-2.016zm3.548-1.613h1.17v1.039c.346-.429.712-.736 1.1-.923.387-.187.818-.28 1.292-.28 1.039 0 1.74.362 2.105 1.087.2.396.301.963.301 1.702V316h-1.25v-4.614c0-.447-.067-.807-.2-1.08-.218-.456-.614-.684-1.189-.684-.291 0-.53.03-.717.089-.338.1-.634.3-.889.601a1.811 1.811 0 0 0-.4.749c-.061.258-.092.626-.092 1.104V316h-1.23v-7.321z" fill="#383838"/><g><g transform="translate(420 300)"><rect fill="#1B4456" width="46" height="22" rx="11"/><circle fill="#4D97B9" cx="35" cy="11" r="10"/></g><path d="M478.922 314.838c.46 0 .838-.048 1.135-.144.528-.177.961-.52 1.298-1.025.27-.406.463-.925.582-1.559.068-.378.102-.729.102-1.052 0-1.245-.247-2.21-.742-2.899-.494-.688-1.29-1.032-2.389-1.032h-2.413v7.71h2.427zm-3.794-8.88h4.067c1.381 0 2.452.49 3.213 1.47.68.884 1.019 2.016 1.019 3.397 0 1.067-.2 2.03-.602 2.892-.706 1.522-1.92 2.283-3.643 2.283h-4.054v-10.042zm14.444 2.922c.488.244.86.56 1.115.947.246.37.41.8.492 1.292.073.337.11.875.11 1.613h-5.367c.023.743.198 1.34.526 1.788.328.449.837.673 1.525.673.642 0 1.155-.212 1.538-.635.218-.246.373-.531.465-.855h1.21c-.032.269-.138.569-.318.9-.18.33-.382.6-.605.81-.374.364-.837.61-1.388.737-.296.073-.631.11-1.005.11-.911 0-1.684-.332-2.317-.995-.634-.663-.95-1.591-.95-2.786 0-1.175.319-2.13.957-2.864.638-.733 1.472-1.1 2.502-1.1.52 0 1.023.122 1.51.365zm.451 2.875c-.05-.533-.166-.96-.348-1.278-.337-.593-.9-.89-1.689-.89-.565 0-1.039.205-1.422.613-.382.408-.585.926-.608 1.555h4.067zm2.81-5.797h1.23V316h-1.23v-10.042zm3.076 2.755h1.251V316h-1.25v-7.287zm0-2.755h1.251v1.395h-1.25v-1.395zm3.712 2.72l1.955 5.962 2.044-5.961h1.347L502.205 316h-1.312l-2.7-7.321h1.428zm10.958.202c.488.244.86.56 1.114.947.246.37.41.8.493 1.292.072.337.109.875.109 1.613h-5.366c.022.743.198 1.34.526 1.788.328.449.836.673 1.524.673.643 0 1.156-.212 1.539-.635.218-.246.373-.531.464-.855h1.21c-.032.269-.137.569-.317.9-.18.33-.382.6-.605.81-.374.364-.837.61-1.388.737-.296.073-.631.11-1.005.11-.912 0-1.684-.332-2.317-.995-.634-.663-.95-1.591-.95-2.786 0-1.175.318-2.13.956-2.864.638-.733 1.472-1.1 2.502-1.1.52 0 1.023.122 1.511.365zm.451 2.875c-.05-.533-.166-.96-.348-1.278-.338-.593-.9-.89-1.689-.89-.565 0-1.039.205-1.422.613-.383.408-.585.926-.608 1.555h4.067zm2.81-3.076h1.169v1.264c.095-.246.33-.545.704-.899.374-.353.804-.53 1.292-.53.023 0 .061.003.116.007l.28.028v1.299a1.838 1.838 0 0 0-.403-.035c-.62 0-1.096.2-1.429.599a2.088 2.088 0 0 0-.499 1.377V316h-1.23v-7.321z" fill="#383838"/></g></g><path d="M291.836 72.523v1.368h-3.867V84h-1.578V73.89h-3.868v-1.367h9.313zm6.473 9.512c.346-.706.52-1.49.52-2.355 0-.782-.126-1.417-.376-1.907-.396-.77-1.078-1.156-2.047-1.156-.86 0-1.484.328-1.875.985-.39.656-.586 1.447-.586 2.375 0 .89.196 1.632.586 2.226.39.594 1.01.89 1.86.89.932 0 1.571-.352 1.918-1.058zm.87-5.566c.745.719 1.118 1.776 1.118 3.172 0 1.349-.328 2.463-.985 3.343-.656.88-1.674 1.32-3.054 1.32-1.151 0-2.065-.389-2.742-1.167-.677-.779-1.016-1.824-1.016-3.137 0-1.406.357-2.526 1.07-3.36.714-.833 1.672-1.25 2.875-1.25 1.078 0 1.99.36 2.735 1.079zm4.25 5.695c.38.604.99.906 1.829.906.65 0 1.186-.28 1.605-.84.42-.56.63-1.363.63-2.41 0-1.057-.217-1.84-.65-2.347-.432-.508-.965-.762-1.6-.762-.71 0-1.283.27-1.723.812-.44.542-.66 1.339-.66 2.391 0 .896.19 1.646.57 2.25zm3.157-6.273c.25.156.534.43.851.82v-4.227h1.352V84h-1.266v-1.164c-.328.516-.716.888-1.164 1.117-.448.23-.96.344-1.539.344-.932 0-1.74-.392-2.422-1.176-.682-.784-1.023-1.827-1.023-3.129 0-1.219.311-2.275.934-3.168.622-.893 1.511-1.34 2.668-1.34.64 0 1.177.136 1.609.407zm5.805 6.843c.297.235.648.352 1.054.352.495 0 .974-.115 1.438-.344.781-.38 1.172-1.002 1.172-1.867v-1.133c-.172.11-.394.2-.664.274-.271.073-.537.125-.797.156l-.852.11c-.51.067-.893.174-1.148.32-.433.244-.649.635-.649 1.171 0 .407.149.727.446.961zm2.96-3.804c.323-.042.54-.177.649-.407.063-.125.094-.304.094-.539 0-.479-.17-.826-.512-1.043-.341-.216-.83-.324-1.465-.324-.734 0-1.255.198-1.562.594-.172.219-.284.544-.336.977h-1.313c.026-1.032.36-1.75 1.004-2.153.643-.403 1.39-.605 2.238-.605.985 0 1.784.187 2.399.562.61.375.914.959.914 1.75v4.82c0 .146.03.264.09.352.06.089.186.133.379.133.062 0 .132-.004.21-.012.079-.008.162-.02.25-.035v1.04a3.917 3.917 0 0 1-.5.116c-.114.016-.27.024-.468.024-.485 0-.836-.172-1.055-.516-.114-.182-.195-.44-.242-.773-.286.375-.698.7-1.234.976a3.818 3.818 0 0 1-1.774.414c-.776 0-1.41-.235-1.902-.707-.492-.471-.738-1.061-.738-1.77 0-.775.242-1.377.726-1.804.485-.427 1.12-.69 1.906-.79l2.243-.28zm9.641-3.297h1.555c-.198.536-.638 1.76-1.32 3.672-.51 1.437-.938 2.61-1.282 3.515-.812 2.136-1.385 3.438-1.718 3.907-.334.468-.907.703-1.72.703-.197 0-.35-.008-.456-.024a3.61 3.61 0 0 1-.395-.086v-1.28c.245.067.422.108.531.124.11.016.206.023.29.023.26 0 .451-.042.574-.128a1.19 1.19 0 0 0 .308-.317 9.7 9.7 0 0 0 .282-.64c.161-.386.278-.672.351-.86l-3.094-8.61h1.594l2.242 6.813 2.258-6.812z" fill="#383838"/></g></svg>