<svg width="181" height="92" viewBox="0 0 181 92" xmlns="http://www.w3.org/2000/svg"><defs><filter x="-17.3%" y="-17.3%" width="134.6%" height="134.6%" filterUnits="objectBoundingBox" id="a"><feGaussianBlur stdDeviation="3.457" in="SourceGraphic"/></filter><linearGradient x1="50%" y1="0%" x2="50%" y2="100%" id="b"><stop stop-color="#FAFAFA" offset="0%"/><stop stop-color="#DDD" offset="100%"/></linearGradient><linearGradient x1="-.003%" y1="50.001%" y2="50.001%" id="c"><stop stop-color="#C8C8C8" offset="0%"/><stop stop-color="#CDCDCD" offset="100%"/></linearGradient><linearGradient x1="-.002%" y1="50%" y2="50%" id="d"><stop stop-color="#D9D9D9" offset="0%"/><stop stop-color="#E2E2E2" offset="100%"/></linearGradient><filter x="-17.3%" y="-28.8%" width="134.6%" height="157.6%" filterUnits="objectBoundingBox" id="e"><feGaussianBlur stdDeviation="3.457" in="SourceGraphic"/></filter><linearGradient x1="50%" y1="1.732%" x2="50%" y2="100%" id="f"><stop stop-color="#50EB6B" offset="0%"/><stop stop-color="#00B600" offset="100%"/></linearGradient></defs><g fill="none" fill-rule="evenodd"><g transform="translate(4)"><rect fill="#000" opacity=".163" filter="url(#a)" x="5" y="23" width="60" height="60" rx="6"/><rect stroke="url(#b)" fill="#FFF" y="8" width="70" height="70" rx="16"/><g fill-rule="nonzero"><path d="M56 61H14a3 3 0 0 1-3-3V28a3 3 0 0 1 3-3h42a3 3 0 0 1 3 3v30a3 3 0 0 1-3 3z" fill="#EAEAEA"/><path d="M17 61h-3a3 3 0 0 1-3-3V28a3 3 0 1 1 6 0v33z" fill="#D54C3F"/><path d="M53 61h3a3 3 0 0 0 3-3V28a3 3 0 1 0-6 0v33z" fill="#B63524"/><path d="M57.718 30.46a3 3 0 1 0-3.436-4.92l-19.28 14.037-.002.001-.002-.001-19.28-14.037a3 3 0 0 0-3.436 4.92l-.08-.059L35 47M57.799 30.401L35 47" fill="#DE5145"/><path d="M56 25c-.639 0-1.232.2-1.718.54l-19.28 14.037-.002.001-.002-.001-19.28-14.037A2.988 2.988 0 0 0 14 25h42z" fill="#EFEFEF"/><path d="M17.001 35.188l-5.056-5.008-.002.004c.106.1.219.192.339.276l-.08-.059 4.8 3.495-.001 1.328" fill="#C64132"/><path fill="#E3E3E3" d="M31.668 49.591L17 61l.001-25.937 14.664 14.524"/><path fill="url(#c)" d="M20.668 24.591L24 22 6.001 8.896v1.167l14.664 14.524z" transform="translate(11 25)"/><path fill="url(#d)" d="M32.061 36H42V8.895L24 22l-3.335 2.587z" transform="translate(11 25)"/></g><g transform="translate(55)"><circle fill="#E21400" cx="12" cy="12" r="12"/><text font-family="ArialMT, Arial" font-size="14" fill="#FFF"><tspan x="8" y="16">1</tspan></text></g></g><g transform="translate(106 8)"><path d="M12 39h48a6 6 0 0 1 6 6v24a6 6 0 0 1-6 6H12a6 6 0 0 1-6-6V45a6 6 0 0 1 6-6z" fill="#000" opacity=".163" filter="url(#e)"/><rect fill="#FFF" x="6" y="8" width="58" height="54" rx="17"/><path d="M17 0h36c9.389 0 17 7.611 17 17v36c0 9.389-7.611 17-17 17H17C7.611 70 0 62.389 0 53V17C0 7.611 7.611 0 17 0zm-4.674 18.55c-.838 3.98-1.073 10.234 12.504 24.562C38.408 57.44 45.5 57.568 49.403 56.999 53.307 56.429 56 50.382 56 49.36s-8.667-7.163-10.924-7.163c-1.56 0-3.289 2.15-5.946 4.057-1.302.935-2.131.256-8.504-5.269-5.032-4.361-7.096-7.512-6.195-9.452 1.996-2.872 2.698-5.402 2.106-7.59-.89-3.282-5.795-10.286-6.78-10.851-.985-.565-6.594 1.477-7.431 5.457z" fill="url(#f)"/></g></g></svg>