<svg width="276" height="276" viewBox="0 0 276 276" xmlns="http://www.w3.org/2000/svg"><defs><linearGradient x1="28.5%" y1="56.471%" x2="71.541%" y2="82.597%" id="a"><stop stop-color="#90FF75" stop-opacity="0" offset="0%"/><stop stop-color="#90FF75" stop-opacity=".246" offset="28.679%"/><stop stop-color="#90FF75" offset="100%"/></linearGradient></defs><g transform="translate(1 1)" fill="none" fill-rule="evenodd"><circle fill="#90FF75" opacity=".376" cx="124.5" cy="40.5" r="2.5"/><circle fill="#90FF75" opacity=".809" cx="194.5" cy="70.5" r="2.5"/><circle fill="#90FF75" opacity=".809" cx="155.5" cy="111.5" r="2.5"/><circle fill="#90FF75" opacity=".773" cx="146.5" cy="79.5" r="2.5"/><circle fill="#90FF75" opacity=".176" cx="76.5" cy="69.5" r="2.5"/><circle fill="#90FF75" opacity=".141" cx="86.5" cy="109.5" r="2.5"/><g stroke="#90FF75"><circle opacity=".163" cx="137" cy="137" r="107"/><circle opacity=".062" cx="137" cy="137" r="137"/><circle opacity=".464" cx="137" cy="137" r="77"/><circle opacity=".78" cx="137" cy="137" r="47"/><circle cx="137" cy="137" r="17"/></g><path d="M137.5 137.5l90-56" stroke="#90FF75" stroke-linecap="square"/><path d="M178.085 38.043c15.875 8.903 27.199 16.51 33.97 22.82 6.773 6.31 12.354 13.022 16.744 20.134L137 137l41.085-98.957z" fill="url(#a)"/></g></svg>