<svg width="141" height="14" viewBox="0 0 141 14" xmlns="http://www.w3.org/2000/svg"><path d="M1.98 13H.433V1.162h3.663c.903 0 1.58.129 2.03.387.452.258.81.634 1.075 1.128.265.494.397 1.027.397 1.6 0 .459-.09.9-.268 1.327-.18.426-.43.811-.752 1.155s-.82.648-1.493.913c.25.143.44.28.57.408.128.129.284.335.466.618.183.283.342.55.478.8L8.48 13H6.718L5.085 9.885a7.168 7.168 0 0 0-1.547-1.977H1.98V13zm0-6.273h1.504c.63 0 1.11-.097 1.44-.29.33-.194.59-.479.784-.854.193-.376.29-.776.29-1.198 0-.373-.077-.706-.231-1a1.996 1.996 0 0 0-.671-.735c-.294-.197-.795-.296-1.504-.296H1.98v4.373zm11.345-5.565h1.537v7.616c0 1.103.109 1.844.327 2.224.219.38.557.67 1.015.87.459.2.967.3 1.526.3.544 0 1.027-.1 1.45-.3.422-.2.736-.516.94-.945.204-.43.306-1.329.306-2.697V1.162h1.418v7.466c0 1.382-.16 2.352-.478 2.911-.319.559-.777 1-1.375 1.327-.598.326-1.352.488-2.261.488-.845 0-1.619-.128-2.32-.386-.702-.258-1.225-.66-1.569-1.209-.344-.548-.516-1.473-.516-2.777v-7.82zm13.891 9.174h1.547v.075c0 .659.231 1.117.693 1.375.462.258 1.076.387 1.842.387.674 0 1.238-.197 1.692-.591.455-.394.682-.91.682-1.547a1.59 1.59 0 0 0-.59-1.278c-.387-.322-.981-.648-1.784-.978l-.612-.247c-.838-.344-1.464-.685-1.88-1.026-.415-.34-.725-.716-.929-1.128a3.066 3.066 0 0 1-.306-1.38c0-.895.317-1.65.95-2.267.634-.615 1.624-.923 2.97-.923 1.24 0 2.11.229 2.611.687.501.458.752.992.752 1.6v.087h-1.536v-.086c0-.194-.079-.383-.236-.57-.158-.186-.39-.322-.699-.408a3.79 3.79 0 0 0-1.02-.129c-.76 0-1.32.19-1.681.57-.362.38-.543.812-.543 1.3 0 .322.086.626.258.912.172.287.408.525.71.715.3.19.808.442 1.524.757l.73.312c1.161.501 1.935 1.03 2.321 1.59.387.551.58 1.149.58 1.793 0 .595-.157 1.17-.472 1.725a3.114 3.114 0 0 1-1.31 1.262c-.56.286-1.304.43-2.235.43-.881 0-1.619-.106-2.213-.317-.595-.212-1.046-.557-1.354-1.037a2.883 2.883 0 0 1-.462-1.59v-.075zM53.043 13h-1.547V1.162h1.547v5.65l4.942-5.65h1.75l-4.887 5.554L60.488 13h-1.923l-5.522-6.188V13zM67 13h-1.547V1.162h3.663c.902 0 1.58.129 2.03.387.451.258.81.634 1.075 1.128.265.494.397 1.027.397 1.6 0 .459-.09.9-.269 1.327-.179.426-.43.811-.752 1.155s-.82.648-1.493.913c.251.143.44.28.57.408.129.129.284.335.467.618.183.283.342.55.478.8L73.498 13h-1.762l-1.633-3.115a7.168 7.168 0 0 0-1.547-1.977H67V13zm0-6.273h1.504c.63 0 1.11-.097 1.44-.29.329-.194.59-.479.783-.854.194-.376.29-.776.29-1.198 0-.373-.077-.706-.23-1a1.996 1.996 0 0 0-.672-.735c-.294-.197-.795-.296-1.504-.296H67v4.373zM78.516 13V1.162h6.692v1.3h-5.145V6.2h4.49v1.182h-4.49V11.7h5.553V13h-7.1zm17.017 0h-1.536V7.425l-3.835-6.263h1.794l2.965 4.78 2.921-4.78h1.494l-3.803 6.263V13zm10.013 0h-1.31V1.162h1.514l3.674 8.454 3.384-8.454h1.493V13h-1.364V5.942l.032-2.105h-.032l-.763 2.116-2.095 5.275h-1.558l-2.277-5.296-.698-1.923h-.043l.043 1.923V13zm14.6 0V1.162h6.692v1.3h-5.145V6.2h4.49v1.182h-4.49V11.7h5.553V13h-7.1zm14.138 0h-1.547V1.162h3.663c.903 0 1.58.129 2.03.387.452.258.81.634 1.075 1.128.265.494.397 1.027.397 1.6 0 .459-.09.9-.268 1.327-.18.426-.43.811-.752 1.155-.323.344-.82.648-1.494.913.251.143.44.28.57.408.129.129.284.335.467.618.183.283.342.55.478.8l1.88 3.502h-1.762l-1.633-3.115a7.168 7.168 0 0 0-1.546-1.977h-1.558V13zm0-6.273h1.504c.63 0 1.11-.097 1.44-.29.329-.194.59-.479.784-.854.193-.376.29-.776.29-1.198 0-.373-.077-.706-.231-1a1.996 1.996 0 0 0-.672-.735c-.293-.197-.795-.296-1.504-.296h-1.611v4.373z" fill="#383838" fill-rule="evenodd"/></svg>