<svg width="72" height="62" xmlns="http://www.w3.org/2000/svg"><defs><linearGradient x1="50%" y1="0%" x2="50%" y2="100%" id="a"><stop stop-color="#AF5B00" offset="0%"/><stop stop-color="#6C3300" offset="100%"/></linearGradient><linearGradient x1="50%" y1="0%" x2="50%" y2="100%" id="b"><stop stop-color="#0067AF" offset="0%"/><stop stop-color="#00406C" offset="100%"/></linearGradient></defs><g fill="none" fill-rule="evenodd"><path d="M44 11h25a3 3 0 013 3v37a3 3 0 01-3 3H44a3 3 0 01-3-3V14a3 3 0 013-3z" fill="#004271"/><path d="M41 12h29a1 1 0 011 1v39a1 1 0 01-1 1H41a1 1 0 01-1-1V13a1 1 0 011-1z" fill="#D8D8D8"/><path d="M3 0h29a3 3 0 013 3v38a3 3 0 01-3 3H3a3 3 0 01-3-3V3a3 3 0 013-3z" fill="url(#a)" transform="translate(35 10)"/><path d="M49.613 35.809v-3.278h3.412v-1.359h-3.412v-1.798h3.897V28H48v7.809h1.613zm7.181.191c.886 0 1.575-.281 2.067-.844.317-.353.494-.702.533-1.045h-1.535a1.26 1.26 0 01-.279.398c-.193.177-.445.266-.754.266-.292 0-.541-.073-.749-.218-.34-.233-.522-.64-.543-1.22h3.933c.008-.499-.008-.88-.047-1.146a2.925 2.925 0 00-.438-1.194 2.268 2.268 0 00-.949-.854 2.996 2.996 0 00-1.291-.27c-.805 0-1.46.267-1.964.8-.505.535-.757 1.302-.757 2.303 0 1.068.28 1.84.838 2.313.56.474 1.204.711 1.935.711zm1.113-3.66H55.57c.05-.375.17-.672.361-.892.192-.219.462-.329.81-.329.32 0 .588.104.804.31.216.208.336.51.36.91zm5.694 3.623c.756 0 1.345-.295 1.766-.886.422-.59.633-1.335.633-2.233 0-.867-.214-1.574-.64-2.123-.428-.548-1.02-.822-1.775-.822-.418 0-.763.089-1.033.265a2.199 2.199 0 00-.628.616V28h-1.497v7.809h1.471v-.727c.2.283.387.481.559.594.288.191.67.287 1.144.287zm-.4-1.247c-.447 0-.78-.163-.997-.488-.218-.325-.327-.736-.327-1.23 0-.422.053-.765.158-1.03.204-.499.578-.748 1.123-.748.538 0 .907.255 1.107.764.106.269.159.608.159 1.019 0 .512-.108.926-.322 1.241a1.03 1.03 0 01-.902.472z" fill="#FFF" fill-rule="nonzero" opacity=".858"/><path d="M37 10v44a2 2 0 01-2-2V12a2 2 0 012-2z" fill="#3C3C3C"/><g><path d="M11 .94h34a3 3 0 013 3v50a3 3 0 01-3 3H11a3 3 0 01-3-3v-50a3 3 0 013-3z" fill="#004271"/><path d="M8 2.584h38a1 1 0 011 1v51a1 1 0 01-1 1H8a1 1 0 01-1-1v-51a1 1 0 011-1z" fill="#D8D8D8"/><path d="M3 0h40a3 3 0 013 3v50.94a3 3 0 01-3 3H3a3 3 0 01-3-3V3a3 3 0 013-3z" fill="url(#b)"/><path fill="#002C4B" d="M6 57h4v5H6z"/><path d="M14.61 33.83c1.307 0 2.212-.424 2.713-1.271.296-.502.445-1.18.445-2.038v-7.013h-2.106v7.048c0 .487-.048.834-.143 1.039-.16.346-.488.52-.985.52-.501 0-.828-.16-.98-.476-.153-.317-.239-.865-.257-1.644v-.232h-1.99v.232c0 1.185.224 2.12.67 2.806.447.686 1.324 1.03 2.632 1.03zm6.91-.014c.53 0 1.003-.12 1.422-.362.351-.205.661-.453.93-.745.014.169.032.319.055.451s.064.274.123.424h2.119v-.287a.698.698 0 01-.287-.226c-.064-.09-.103-.264-.116-.52-.01-.336-.014-.624-.014-.86v-3.419c0-.897-.317-1.508-.95-1.832-.634-.323-1.358-.485-2.174-.485-1.253 0-2.137.328-2.652.984-.324.42-.506.955-.547 1.607h1.88c.045-.287.136-.515.273-.684.191-.228.517-.341.978-.341.41 0 .72.058.933.174.212.116.318.327.318.632 0 .25-.14.435-.417.554-.155.068-.413.125-.773.17l-.663.083c-.752.095-1.322.255-1.709.478-.706.41-1.06 1.074-1.06 1.99 0 .706.22 1.252.66 1.637.44.385.997.577 1.672.577zm.575-1.415c-.265 0-.489-.074-.674-.222-.184-.148-.276-.388-.276-.721 0-.374.15-.65.45-.827.178-.105.472-.194.883-.267l.437-.082c.219-.04.39-.085.516-.133.125-.048.25-.11.373-.188v.725c-.014.651-.197 1.1-.55 1.346-.354.246-.74.37-1.16.37zm7.342 1.183v-4.033c0-.46.063-.839.19-1.135.247-.56.7-.84 1.361-.84.538 0 .903.19 1.094.573.105.21.157.51.157.903v4.532h1.996v-5.018c0-.934-.245-1.603-.735-2.006-.49-.403-1.12-.605-1.89-.605-.615 0-1.123.15-1.524.451-.223.169-.46.445-.711.827v-1.087h-1.88v7.438h1.942z" fill="#FFF" fill-rule="nonzero" opacity=".858"/><path d="M2 0v56.94a2 2 0 01-2-2V2a2 2 0 012-2z" fill="#3C3C3C"/></g></g></svg>