<svg width="978" height="159" viewBox="0 0 978 159" xmlns="http://www.w3.org/2000/svg" xmlns:xlink="http://www.w3.org/1999/xlink"><defs><path id="b" d="M.893.212h130v154h-130z"/><filter x="-1.5%" y="-.6%" width="103.1%" height="102.6%" filterUnits="objectBoundingBox" id="a"><feOffset dy="1" in="SourceAlpha" result="shadowOffsetOuter1"/><feGaussianBlur stdDeviation=".5" in="shadowOffsetOuter1" result="shadowBlurOuter1"/><feColorMatrix values="0 0 0 0 0 0 0 0 0 0 0 0 0 0 0 0 0 0 0.5 0" in="shadowBlurOuter1"/></filter><filter x="-66.7%" y="-1.8%" width="200%" height="107.3%" filterUnits="objectBoundingBox" id="c"><feOffset dx="-1" dy="3" in="SourceAlpha" result="shadowOffsetOuter1"/><feGaussianBlur stdDeviation=".5" in="shadowOffsetOuter1" result="shadowBlurOuter1"/><feColorMatrix values="0 0 0 0 0 0 0 0 0 0 0 0 0 0 0 0 0 0 0.5 0" in="shadowBlurOuter1" result="shadowMatrixOuter1"/><feMerge><feMergeNode in="shadowMatrixOuter1"/><feMergeNode in="SourceGraphic"/></feMerge></filter><path id="e" d="M.465 2.169h45.369v45.369H.465z"/><filter x="-.2%" y="-.2%" width="100.4%" height="100.9%" filterUnits="objectBoundingBox" id="d"><feOffset dy=".2" in="SourceAlpha" result="shadowOffsetOuter1"/><feColorMatrix values="0 0 0 0 0 0 0 0 0 0 0 0 0 0 0 0 0 0 0.5 0" in="shadowOffsetOuter1"/></filter><path id="g" d="M1.175 1.483h45.369v45.369H1.175z"/><filter x="-.2%" y="-.2%" width="100.4%" height="100.9%" filterUnits="objectBoundingBox" id="f"><feOffset dy=".2" in="SourceAlpha" result="shadowOffsetOuter1"/><feColorMatrix values="0 0 0 0 0 0 0 0 0 0 0 0 0 0 0 0 0 0 0.5 0" in="shadowOffsetOuter1"/></filter><path id="i" d="M.489.773h45.369v45.369H.489z"/><filter x="-.2%" y="-.2%" width="100.4%" height="100.9%" filterUnits="objectBoundingBox" id="h"><feOffset dy=".2" in="SourceAlpha" result="shadowOffsetOuter1"/><feColorMatrix values="0 0 0 0 0 0 0 0 0 0 0 0 0 0 0 0 0 0 0.5 0" in="shadowOffsetOuter1"/></filter><path id="k" d="M2.105.103h45.369v45.369H2.105z"/><filter x="-.2%" y="-.2%" width="100.4%" height="100.9%" filterUnits="objectBoundingBox" id="j"><feOffset dy=".2" in="SourceAlpha" result="shadowOffsetOuter1"/><feColorMatrix values="0 0 0 0 0 0 0 0 0 0 0 0 0 0 0 0 0 0 0.5 0" in="shadowOffsetOuter1"/></filter><linearGradient x1="100%" y1="95.546%" x2="0%" y2="95.546%" id="n"><stop stop-color="#C6C6C6" offset="0%"/><stop stop-color="#999" offset="9.312%"/><stop stop-color="#999" offset="92.445%"/><stop stop-color="#C2C2C2" offset="100%"/></linearGradient><path d="M12.544 7.273c-4.65 0-5.625 0-6.384 5.842C5.401 18.958.74 70.354.728 74.031c-.012 3.678 2.683 5.746 5.977 5.746 3.294 0 75.243.223 76.974.223 1.73 0 7.641-.574 7.307-5.969-.334-5.394-5.904-61.26-5.904-61.26s-.507-5.224-4.655-5.224c-4.147 0-63.234-.274-67.883-.274z" id="m"/><filter x="-14.4%" y="-15.1%" width="128.8%" height="135.8%" filterUnits="objectBoundingBox" id="l"><feMorphology radius="1" operator="dilate" in="SourceAlpha" result="shadowSpreadOuter1"/><feOffset dy="2" in="shadowSpreadOuter1" result="shadowOffsetOuter1"/><feGaussianBlur stdDeviation="3" in="shadowOffsetOuter1" result="shadowBlurOuter1"/><feColorMatrix values="0 0 0 0 0 0 0 0 0 0 0 0 0 0 0 0 0 0 0.7 0" in="shadowBlurOuter1"/></filter><linearGradient x1="0%" y1="68.142%" y2="68.142%" id="o"><stop stop-color="#6E6D6D" offset="0%"/><stop stop-color="#252525" offset="9.694%"/><stop stop-color="#212121" offset="68.693%"/><stop stop-color="#202020" offset="91.353%"/><stop stop-color="#6E6D6D" offset="100%"/></linearGradient><linearGradient x1="50%" y1="0%" x2="50%" y2="100%" id="p"><stop stop-color="#4C4C4C" offset="0%"/><stop stop-color="#4D4C4C" offset="100%"/></linearGradient><linearGradient x1="50%" y1="0%" x2="50%" y2="100%" id="q"><stop stop-color="#A6A6A6" offset="0%"/><stop stop-color="#555" offset="100%"/></linearGradient><linearGradient x1="50%" y1="0%" x2="50%" y2="100%" id="t"><stop stop-color="#F6BF6E" offset="0%"/><stop stop-color="#F3A348" offset="47.365%"/><stop stop-color="#F08C32" offset="51.228%"/><stop stop-color="#EF8132" offset="100%"/></linearGradient><path d="M54.102 15.303c-4.087-1.596-14.558-2.981-19.713 1.881-5.155 4.862-2.85 10.016-.664 11.78 2.186 1.765 5.156 2.628 9.677 3.706 4.521 1.078 8.328 2.298 6.444 6.058-1.884 3.76-6.96 1.982-11.66 1.07-4.702-.911-5.997-1.216-7.693.285-1.696 1.502-1.476 3.16-1.136 3.874.34.715 2.808 4.318 11.649 4.702 8.84.383 12.256-.917 14.126-2.13 1.87-1.212 5.292-3.422 5.292-8.476s-2.283-6.737-3.776-7.848c-1.493-1.112-6.643-3.168-11.212-4.37-4.568-1.204-5.164-1.991-4.43-4.34.734-2.349 4.818-1.638 4.818-1.638s4.082.97 5.784 1.304c1.702.334 3.916.334 4.663-.519.748-.853 1.917-3.742-2.17-5.339z" id="s"/><filter x="-105.4%" y="-94.5%" width="310.8%" height="289.1%" filterUnits="objectBoundingBox" id="r"><feMorphology radius="1" operator="dilate" in="SourceAlpha" result="shadowSpreadOuter1"/><feOffset in="shadowSpreadOuter1" result="shadowOffsetOuter1"/><feGaussianBlur stdDeviation="10" in="shadowOffsetOuter1" result="shadowBlurOuter1"/><feColorMatrix values="0 0 0 0 0.960784314 0 0 0 0 0.694117647 0 0 0 0 0.352941176 0 0 0 0.5 0" in="shadowBlurOuter1"/></filter><filter x="-76.7%" y="-68.8%" width="253.3%" height="237.5%" filterUnits="objectBoundingBox" id="u"><feGaussianBlur stdDeviation="1" in="SourceAlpha" result="shadowBlurInner1"/><feOffset dy="2" in="shadowBlurInner1" result="shadowOffsetInner1"/><feComposite in="shadowOffsetInner1" in2="SourceAlpha" operator="arithmetic" k2="-1" k3="1" result="shadowInnerInner1"/><feColorMatrix values="0 0 0 0 0 0 0 0 0 0 0 0 0 0 0 0 0 0 0.7 0" in="shadowInnerInner1" result="shadowMatrixInner1"/><feGaussianBlur stdDeviation="1" in="SourceAlpha" result="shadowBlurInner2"/><feOffset dy="-2" in="shadowBlurInner2" result="shadowOffsetInner2"/><feComposite in="shadowOffsetInner2" in2="SourceAlpha" operator="arithmetic" k2="-1" k3="1" result="shadowInnerInner2"/><feColorMatrix values="0 0 0 0 1 0 0 0 0 1 0 0 0 0 1 0 0 0 0.5 0" in="shadowInnerInner2" result="shadowMatrixInner2"/><feMerge><feMergeNode in="shadowMatrixInner1"/><feMergeNode in="shadowMatrixInner2"/></feMerge></filter></defs><g fill="none" fill-rule="evenodd"><g transform="rotate(-1 160.688 -4.528)"><use fill="#000" filter="url(#a)" xlink:href="#b"/><use fill="#FFFDF2" xlink:href="#b"/></g><g filter="url(#c)" transform="rotate(180 50.223 66.672)"><path d="M1.229 8.504l1.527-6.806 2.828 12.285H0l1.229-5.479z" fill="#F3B7AA"/><path fill="#FFEBE7" d="M2.756 1.698l-1.36 12.285H0z"/><path fill="#E1A89C" d="M2.792 1.698l1.36 12.285h1.396z"/><path fill="#4A4A4A" d="M2.777 1.698l1.271 5.584H1.523z"/><g><path fill="#F79A28" d="M0 106.091h5.584V13.982H0z"/><path fill="#FFCE82" d="M0 106.091h1.396V13.982H0z"/><path fill="#D38408" opacity=".651" d="M4.188 106.091h1.396V13.982H4.188z"/></g><g><path d="M0 105.288a2.79 2.79 0 0 0 2.792 2.784 2.787 2.787 0 0 0 2.792-2.784v-3.917H0v3.917z" fill="#F8A7BA"/><path d="M0 107.371c0 .387.31.7.698.7h.698v-6.91H0v6.21z" fill="#F7D0D9"/><path d="M4.188 108.072h.698a.7.7 0 0 0 .698-.7v-6.21H4.188v6.91z" fill="#DB92A3"/></g><g><path fill="#A4855B" d="M0 101.371h5.584v-5.584H0z"/><path fill="#C5AA85" d="M0 101.371h2.792v-5.584H0z"/></g></g><g transform="rotate(-1 1521.43 -1622.009)"><use fill="#000" filter="url(#d)" xlink:href="#e"/><use fill="#FEB7B7" xlink:href="#e"/></g><g transform="rotate(-1 1521.43 -1622.009)"><use fill="#000" filter="url(#f)" xlink:href="#g"/><use fill="#FEB7B7" xlink:href="#g"/></g><g transform="rotate(-1 1521.43 -1622.009)"><use fill="#000" filter="url(#h)" xlink:href="#i"/><use fill="#FEB7B7" xlink:href="#i"/></g><g transform="rotate(-1 1521.43 -1622.009)"><use fill="#000" filter="url(#j)" xlink:href="#k"/><use fill="#FEB7B7" xlink:href="#k"/></g><g transform="translate(739 43)"><use fill="#000" filter="url(#l)" xlink:href="#m"/><use fill="url(#n)" xlink:href="#m"/><path d="M13.065 5.628s-6.242-1.65-7.073 5.584C5.16 18.445.012 71.16.012 71.16s-.561 5.93 5.756 5.93H84.78s5.98.077 5.459-4.995c-.52-5.073-6.01-61.813-6.01-61.813s-.506-5.191-4.646-5.191-66.519.537-66.519.537z" fill="#E8E8E8"/><rect fill="#000" x="5.096" y="62.545" width="80.808" height="8.727" rx="4.364"/><path d="M5.824 59.816c.894 1.313 1.329 2.662 6.519 2.662s67.698-.378 69.466-.378c1.767 0 3.893-1.013 4.058-3.514.164-2.5-.269 7.414-.269 7.414s-.17 3.818-3.475 3.818H12.855c-3.786 0-6.558-.43-6.775-2.879-.218-2.448-.256-5.366-.256-7.123z" fill="url(#o)"/><path d="M9.473 12.676c.559-6.6 6.391-11.949 13.01-11.949h46.033c6.627 0 12.453 5.36 13.011 11.949l3.275 38.648c.56 6.6-4.356 11.949-10.993 11.949H17.19c-6.63 0-11.551-5.36-10.993-11.949l3.275-38.648z" fill="#B0B0B0"/><path d="M9.473 11.948C10.032 5.35 15.864 0 22.483 0h46.033c6.627 0 12.453 5.36 13.011 11.948l3.275 38.649c.56 6.599-4.356 11.948-10.993 11.948H17.19c-6.63 0-11.551-5.36-10.993-11.948l3.275-38.649z" fill="url(#p)"/><path d="M8.008 30.37l1.499-17.693c.559-6.6 6.384-11.95 13.016-11.95h45.939c6.63 0 12.457 5.348 13.017 11.957l1.513 17.861-74.984-.176z" fill="url(#q)"/><g><use fill="#000" filter="url(#r)" xlink:href="#s"/><use fill="url(#t)" xlink:href="#s"/><use fill="#000" filter="url(#u)" xlink:href="#s"/></g></g><g fill="#1ED760" fill-rule="nonzero"><path d="M232.998 43.132c-22.023 0-39.878 17.854-39.878 39.877 0 22.024 17.855 39.877 39.878 39.877 22.026 0 39.878-17.853 39.878-39.877 0-22.022-17.852-39.875-39.878-39.875v-.002zm18.288 57.514a2.484 2.484 0 0 1-3.42.824c-9.362-5.719-21.149-7.014-35.03-3.843a2.486 2.486 0 0 1-1.106-4.847c15.19-3.471 28.22-1.977 38.732 4.447a2.485 2.485 0 0 1 .824 3.42zm4.88-10.858a3.11 3.11 0 0 1-4.276 1.025c-10.719-6.589-27.058-8.497-39.737-4.648a3.113 3.113 0 0 1-3.88-2.072 3.113 3.113 0 0 1 2.074-3.877c14.482-4.395 32.486-2.266 44.796 5.298a3.108 3.108 0 0 1 1.024 4.275zm.42-11.307c-12.853-7.633-34.057-8.335-46.328-4.611a3.73 3.73 0 1 1-2.166-7.138c14.087-4.276 37.503-3.45 52.3 5.334a3.725 3.725 0 0 1 1.305 5.111 3.727 3.727 0 0 1-5.11 1.304h-.001z"/></g><g fill-rule="nonzero"><path fill="#FBCE4B" d="M914.56 43h33.526l29.836 52-39.621-12.205z"/><path fill="#DFB53D" d="M938.3 82.795L946.242 95h31.681z"/><path fill="#3476DD" d="M977.922 95l-15.827 27.789H900.82L931.082 95z"/><path fill="#055BD8" d="M917.235 95l-16.416 27.789L931.082 95z"/><path fill="#15A864" d="M900.819 122.789L884.295 95l30.265-52 9.784 39.88-7.11 12.12z"/><path fill="#129155" d="M914.56 43l9.784 39.88 6.738-12.185z"/></g><g fill-rule="nonzero"><path fill="#001D26" d="M472.727 46.72h75.478v73.49h-75.478z"/><path d="M469 43v80h82V43h-82zm3.417 3.419h75.166v73.162h-75.166V46.42zm16.4 15.316c0-.24.478-.41.751-.41 2.187-.103 5.433-.171 8.815-.171 9.465 0 13.155 5.196 13.155 11.863 0 8.684-6.287 12.41-14.009 12.41-1.298 0-1.742-.068-2.665-.068v13.128c0 .274-.102.41-.41.41h-5.227c-.274 0-.41-.102-.41-.41V61.735zm6.081 18.154c.786.068 1.401.068 2.768.068 3.997 0 7.756-1.401 7.756-6.837 0-4.342-2.7-6.53-7.244-6.53-1.366 0-2.665.068-3.28.102V79.89zm29.384-4.068c-2.7 0-3.622 1.367-3.622 2.495 0 1.231.615 2.086 4.237 3.966 5.364 2.598 7.038 5.094 7.038 8.752 0 5.47-4.168 8.41-9.806 8.41-2.972 0-5.535-.615-7.004-1.47-.24-.102-.273-.273-.273-.547v-5.025c0-.342.17-.445.41-.274 2.152 1.402 4.612 2.017 6.867 2.017 2.7 0 3.827-1.128 3.827-2.666 0-1.231-.786-2.325-4.237-4.103-4.852-2.325-6.867-4.684-6.867-8.615 0-4.41 3.45-8.069 9.43-8.069 2.938 0 4.988.445 6.115.958.274.17.342.444.342.683v4.684c0 .274-.17.445-.512.342-1.504-.957-3.725-1.538-5.945-1.538z" fill="#00C8FF"/></g><g fill-rule="nonzero"><path fill="#FDB300" d="M346.2 45.634L371 43l24.8 2.634L415 71.527 371 123l-44-51.473z"/><path fill="#EA6C00" d="M344.786 72l26.125 50.987L327 72zM397.036 72l-26.125 50.987L414.823 72z"/><path fill="#FDAD00" d="M344.786 72h52.25l-26.125 50.987z"/><g><path fill="#FDD231" d="M370.911 43l-24.75 2.675-1.375 26.298zM370.911 43l24.75 2.675 1.375 26.298z"/><path fill="#FDAD00" d="M414.823 71.973L395.66 45.675l1.375 26.298zM327 71.973l19.161-26.298-1.375 26.298z"/><path fill="#FEEEB7" d="M370.911 43l-26.125 28.973h52.25z"/></g></g><g fill-rule="nonzero"><path d="M685 83c0 22.088-17.912 40-40 40s-40-17.912-40-40 17.912-40 40-40 40 17.912 40 40z" fill="#4CAF50"/><path d="M644.699 43v40l16.12 8L643 123h1.699C666.97 123 685 105.106 685 83s-18.029-40-40.301-40z" fill="#FFC107"/><path d="M685 83c0 22.088-17.912 40-40 40s-40-17.912-40-40 17.912-40 40-40 40 17.912 40 40z" fill="#4CAF50"/><path d="M644.699 43v40l16.12 8L643 123h1.699C666.97 123 685 105.106 685 83s-18.029-40-40.301-40z" fill="#FFC107"/><path d="M681 65h-35.988v26l-6.052-2-27.662-27.672c7.1-11.14 19.41-18.328 33.714-18.328A40.334 40.334 0 0 1 681 65z" fill="#F44336"/><path fill="#DD2C00" d="M611.298 61.323L628.888 91 639 88.727z"/><path fill="#558B2F" d="M643 123l18-32.118L652.758 85z"/><path fill="#F9A825" d="M681 65h-35.833L642 74z"/><path d="M663 83c0 9.938-8.062 18-18 18s-18-8.062-18-18 8.062-18 18-18 18 8.062 18 18z" fill="#FFF"/><path d="M659 83c0 7.734-6.266 14-14 14s-14-6.266-14-14 6.266-14 14-14 14 6.266 14 14z" fill="#2196F3"/></g></g></svg>