<svg width="100%" viewBox="0 0 917 97" xmlns="http://www.w3.org/2000/svg" xmlns:xlink="http://www.w3.org/1999/xlink"><defs><linearGradient x1="100%" y1="95.546%" x2="0%" y2="95.546%" id="c"><stop stop-color="#C6C6C6" offset="0%"/><stop stop-color="#999" offset="9.312%"/><stop stop-color="#999" offset="92.445%"/><stop stop-color="#C2C2C2" offset="100%"/></linearGradient><path d="M12.544 7.273c-4.65 0-5.625 0-6.384 5.842C5.401 18.958.74 70.354.728 74.031c-.012 3.678 2.683 5.746 5.977 5.746 3.294 0 75.243.223 76.974.223 1.73 0 7.641-.574 7.307-5.969-.334-5.394-5.904-61.26-5.904-61.26s-.507-5.224-4.655-5.224c-4.147 0-63.234-.274-67.883-.274z" id="b"/><filter x="-5%" y="-3.4%" width="110%" height="113.8%" filterUnits="objectBoundingBox" id="a"><feOffset dy="3" in="SourceAlpha" result="shadowOffsetOuter1"/><feGaussianBlur stdDeviation="1" in="shadowOffsetOuter1" result="shadowBlurOuter1"/><feColorMatrix values="0 0 0 0 0 0 0 0 0 0 0 0 0 0 0 0 0 0 0.35 0" in="shadowBlurOuter1"/></filter><linearGradient x1="0%" y1="68.142%" y2="68.142%" id="d"><stop stop-color="#6E6D6D" offset="0%"/><stop stop-color="#252525" offset="9.694%"/><stop stop-color="#212121" offset="68.693%"/><stop stop-color="#202020" offset="91.353%"/><stop stop-color="#6E6D6D" offset="100%"/></linearGradient><linearGradient x1="50%" y1="0%" x2="50%" y2="100%" id="e"><stop stop-color="#4C4C4C" offset="0%"/><stop stop-color="#4D4C4C" offset="100%"/></linearGradient><linearGradient x1="50%" y1="0%" x2="50%" y2="100%" id="f"><stop stop-color="#A6A6A6" offset="0%"/><stop stop-color="#555" offset="100%"/></linearGradient><linearGradient x1="50%" y1="0%" x2="50%" y2="100%" id="i"><stop stop-color="#F6BF6E" offset="0%"/><stop stop-color="#F3A348" offset="47.365%"/><stop stop-color="#F08C32" offset="51.228%"/><stop stop-color="#EF8132" offset="100%"/></linearGradient><path d="M54.102 15.303c-4.087-1.596-14.558-2.981-19.713 1.881-5.155 4.862-2.85 10.016-.664 11.78 2.186 1.765 5.156 2.628 9.677 3.706 4.521 1.078 8.328 2.298 6.444 6.058-1.884 3.76-6.96 1.982-11.66 1.07-4.702-.911-5.997-1.216-7.693.285-1.696 1.502-1.476 3.16-1.136 3.874.34.715 2.808 4.318 11.649 4.702 8.84.383 12.256-.917 14.126-2.13 1.87-1.212 5.292-3.422 5.292-8.476s-2.283-6.737-3.776-7.848c-1.493-1.112-6.643-3.168-11.212-4.37-4.568-1.204-5.164-1.991-4.43-4.34.734-2.349 4.818-1.638 4.818-1.638s4.082.97 5.784 1.304c1.702.334 3.916.334 4.663-.519.748-.853 1.917-3.742-2.17-5.339z" id="h"/><filter x="-105.4%" y="-94.5%" width="310.8%" height="289.1%" filterUnits="objectBoundingBox" id="g"><feMorphology radius="1" operator="dilate" in="SourceAlpha" result="shadowSpreadOuter1"/><feOffset in="shadowSpreadOuter1" result="shadowOffsetOuter1"/><feGaussianBlur stdDeviation="10" in="shadowOffsetOuter1" result="shadowBlurOuter1"/><feColorMatrix values="0 0 0 0 0.960784314 0 0 0 0 0.694117647 0 0 0 0 0.352941176 0 0 0 0.5 0" in="shadowBlurOuter1"/></filter><filter x="-76.7%" y="-68.8%" width="253.3%" height="237.5%" filterUnits="objectBoundingBox" id="j"><feGaussianBlur stdDeviation=".5" in="SourceAlpha" result="shadowBlurInner1"/><feOffset dy="1" in="shadowBlurInner1" result="shadowOffsetInner1"/><feComposite in="shadowOffsetInner1" in2="SourceAlpha" operator="arithmetic" k2="-1" k3="1" result="shadowInnerInner1"/><feColorMatrix values="0 0 0 0 0 0 0 0 0 0 0 0 0 0 0 0 0 0 0.7 0" in="shadowInnerInner1" result="shadowMatrixInner1"/><feGaussianBlur stdDeviation="1" in="SourceAlpha" result="shadowBlurInner2"/><feOffset dy="-2" in="shadowBlurInner2" result="shadowOffsetInner2"/><feComposite in="shadowOffsetInner2" in2="SourceAlpha" operator="arithmetic" k2="-1" k3="1" result="shadowInnerInner2"/><feColorMatrix values="0 0 0 0 1 0 0 0 0 1 0 0 0 0 1 0 0 0 0.5 0" in="shadowInnerInner2" result="shadowMatrixInner2"/><feMerge><feMergeNode in="shadowMatrixInner1"/><feMergeNode in="shadowMatrixInner2"/></feMerge></filter><path d="M39.998.132C17.975.132.12 17.986.12 40.009c0 22.024 17.855 39.877 39.878 39.877 22.026 0 39.878-17.853 39.878-39.877C79.876 17.987 62.024.134 39.998.134V.132zm18.288 57.514a2.484 2.484 0 0 1-3.42.824c-9.362-5.719-21.149-7.014-35.03-3.843a2.486 2.486 0 0 1-1.106-4.847c15.19-3.471 28.22-1.977 38.732 4.447a2.485 2.485 0 0 1 .824 3.42zm4.88-10.858a3.11 3.11 0 0 1-4.276 1.025c-10.719-6.589-27.058-8.497-39.737-4.648a3.113 3.113 0 0 1-3.88-2.072 3.113 3.113 0 0 1 2.074-3.877c14.482-4.395 32.486-2.266 44.796 5.298a3.108 3.108 0 0 1 1.024 4.275zm.42-11.307c-12.853-7.633-34.057-8.335-46.328-4.611a3.73 3.73 0 1 1-2.166-7.138c14.087-4.276 37.503-3.45 52.3 5.334a3.725 3.725 0 0 1 1.305 5.111 3.727 3.727 0 0 1-5.11 1.304h-.001z" id="l"/><filter x="-3.1%" y="-1.9%" width="106.3%" height="107.5%" filterUnits="objectBoundingBox" id="k"><feOffset dy="2" in="SourceAlpha" result="shadowOffsetOuter1"/><feGaussianBlur stdDeviation=".5" in="shadowOffsetOuter1" result="shadowBlurOuter1"/><feColorMatrix values="0 0 0 0 0 0 0 0 0 0 0 0 0 0 0 0 0 0 0.345986187 0" in="shadowBlurOuter1"/></filter><filter x="-2.7%" y="-1.9%" width="105.3%" height="107.5%" filterUnits="objectBoundingBox" id="m"><feOffset dy="2" in="SourceAlpha" result="shadowOffsetOuter1"/><feGaussianBlur stdDeviation=".5" in="shadowOffsetOuter1" result="shadowBlurOuter1"/><feColorMatrix values="0 0 0 0 0 0 0 0 0 0 0 0 0 0 0 0 0 0 0.35 0" in="shadowBlurOuter1" result="shadowMatrixOuter1"/><feMerge><feMergeNode in="shadowMatrixOuter1"/><feMergeNode in="SourceGraphic"/></feMerge></filter><filter x="-3%" y="-1.9%" width="106.1%" height="107.5%" filterUnits="objectBoundingBox" id="n"><feOffset dy="2" in="SourceAlpha" result="shadowOffsetOuter1"/><feGaussianBlur stdDeviation=".5" in="shadowOffsetOuter1" result="shadowBlurOuter1"/><feColorMatrix values="0 0 0 0 0 0 0 0 0 0 0 0 0 0 0 0 0 0 0.35 0" in="shadowBlurOuter1" result="shadowMatrixOuter1"/><feMerge><feMergeNode in="shadowMatrixOuter1"/><feMergeNode in="SourceGraphic"/></feMerge></filter><path id="p" d="M19.2 2.634L44 0l24.8 2.634L88 28.527 44 80 0 28.527z"/><filter x="-2.8%" y="-1.9%" width="105.7%" height="107.5%" filterUnits="objectBoundingBox" id="o"><feOffset dy="2" in="SourceAlpha" result="shadowOffsetOuter1"/><feGaussianBlur stdDeviation=".5" in="shadowOffsetOuter1" result="shadowBlurOuter1"/><feColorMatrix values="0 0 0 0 0 0 0 0 0 0 0 0 0 0 0 0 0 0 0.35 0" in="shadowBlurOuter1"/></filter><filter x="-3.1%" y="-1.9%" width="106.2%" height="107.5%" filterUnits="objectBoundingBox" id="q"><feOffset dy="2" in="SourceAlpha" result="shadowOffsetOuter1"/><feGaussianBlur stdDeviation=".5" in="shadowOffsetOuter1" result="shadowBlurOuter1"/><feColorMatrix values="0 0 0 0 0 0 0 0 0 0 0 0 0 0 0 0 0 0 0.35 0" in="shadowBlurOuter1" result="shadowMatrixOuter1"/><feMerge><feMergeNode in="shadowMatrixOuter1"/><feMergeNode in="SourceGraphic"/></feMerge></filter><linearGradient x1="50%" y1="0%" x2="50%" y2="98.234%" id="t"><stop stop-color="#F6F6F6" offset="0%"/><stop stop-color="#D3D3D3" offset="100%"/></linearGradient><path id="s" d="M0 12.792h65.465v65.465H0z"/><filter x="-6.1%" y="-3.1%" width="112.2%" height="112.2%" filterUnits="objectBoundingBox" id="r"><feOffset dy="2" in="SourceAlpha" result="shadowOffsetOuter1"/><feGaussianBlur stdDeviation="1" in="shadowOffsetOuter1" result="shadowBlurOuter1"/><feComposite in="shadowBlurOuter1" in2="SourceAlpha" operator="out" result="shadowBlurOuter1"/><feColorMatrix values="0 0 0 0 0 0 0 0 0 0 0 0 0 0 0 0 0 0 0.3 0" in="shadowBlurOuter1"/></filter><linearGradient x1="50%" y1="0%" x2="50%" y2="100%" id="u"><stop stop-color="#FFDF60" offset="0%"/><stop stop-color="#FECC05" offset="100%"/></linearGradient><linearGradient x1="50%" y1="0%" x2="50%" y2="98.234%" id="w"><stop stop-color="#FFDF5F" offset="0%"/><stop stop-color="#DAAF02" offset="100%"/></linearGradient><path id="v" d="M0 0h65.465v12.792H0z"/></defs><g fill="none" fill-rule="evenodd"><g transform="translate(677 8)"><use fill="#000" filter="url(#a)" xlink:href="#b"/><use fill="url(#c)" xlink:href="#b"/><path d="M13.065 5.628s-6.242-1.65-7.073 5.584C5.16 18.445.012 71.16.012 71.16s-.561 5.93 5.756 5.93H84.78s5.98.077 5.459-4.995c-.52-5.073-6.01-61.813-6.01-61.813s-.506-5.191-4.646-5.191-66.519.537-66.519.537z" fill="#E8E8E8"/><rect fill="#000" x="5.096" y="62.545" width="80.808" height="8.727" rx="4.364"/><path d="M5.824 59.816c.894 1.313 1.329 2.662 6.519 2.662s67.698-.378 69.466-.378c1.767 0 3.893-1.013 4.058-3.514.164-2.5-.269 7.414-.269 7.414s-.17 3.818-3.475 3.818H12.855c-3.786 0-6.558-.43-6.775-2.879-.218-2.448-.256-5.366-.256-7.123z" fill="url(#d)"/><path d="M9.473 12.676c.559-6.6 6.391-11.949 13.01-11.949h46.033c6.627 0 12.453 5.36 13.011 11.949l3.275 38.648c.56 6.6-4.356 11.949-10.993 11.949H17.19c-6.63 0-11.551-5.36-10.993-11.949l3.275-38.648z" fill="#B0B0B0"/><path d="M9.473 11.948C10.032 5.35 15.864 0 22.483 0h46.033c6.627 0 12.453 5.36 13.011 11.948l3.275 38.649c.56 6.599-4.356 11.948-10.993 11.948H17.19c-6.63 0-11.551-5.36-10.993-11.948l3.275-38.649z" fill="url(#e)"/><path d="M8.008 30.37l1.499-17.693c.559-6.6 6.384-11.95 13.016-11.95h45.939c6.63 0 12.457 5.348 13.017 11.957l1.513 17.861-74.984-.176z" fill="url(#f)"/><g><use fill="#000" filter="url(#g)" xlink:href="#h"/><use fill="url(#i)" xlink:href="#h"/><use fill="#000" filter="url(#j)" xlink:href="#h"/></g></g><g transform="translate(131 8)" fill-rule="nonzero"><use fill="#000" filter="url(#k)" xlink:href="#l"/><use fill="#1ED760" fill-rule="evenodd" xlink:href="#l"/></g><g filter="url(#m)" transform="translate(822 8)" fill-rule="nonzero"><path fill="#FBCE4B" d="M30.56 0h33.526l29.836 52-39.621-12.205z"/><path fill="#DFB53D" d="M54.3 39.795L62.242 52h31.681z"/><path fill="#3476DD" d="M93.922 52L78.095 79.789H16.82L47.082 52z"/><path fill="#055BD8" d="M33.235 52L16.819 79.789 47.082 52z"/><path fill="#15A864" d="M16.819 79.789L.295 52 30.56 0l9.784 39.88L33.234 52z"/><path fill="#129155" d="M30.56 0l9.784 39.88 6.738-12.185z"/></g><g filter="url(#n)" transform="translate(407 8)" fill-rule="nonzero"><path fill="#001D26" d="M3.727 3.72h75.478v73.49H3.727z"/><path d="M0 0v80h82V0H0zm3.417 3.419h75.166V76.58H3.417V3.42zm16.4 15.316c0-.24.478-.41.751-.41 2.187-.103 5.433-.171 8.815-.171 9.464 0 13.155 5.196 13.155 11.863 0 8.684-6.287 12.41-14.009 12.41-1.298 0-1.742-.068-2.665-.068v13.128c0 .274-.102.41-.41.41h-5.227c-.274 0-.41-.102-.41-.41V18.735zm6.081 18.154c.786.068 1.401.068 2.768.068 3.997 0 7.756-1.401 7.756-6.837 0-4.342-2.7-6.53-7.244-6.53-1.366 0-2.665.068-3.28.102V36.89zm29.384-4.068c-2.7 0-3.622 1.367-3.622 2.495 0 1.231.615 2.086 4.237 3.966 5.364 2.598 7.038 5.094 7.038 8.752 0 5.47-4.168 8.41-9.806 8.41-2.972 0-5.535-.615-7.004-1.47-.24-.102-.273-.273-.273-.547v-5.025c0-.342.17-.445.41-.274 2.152 1.402 4.612 2.017 6.867 2.017 2.7 0 3.827-1.128 3.827-2.666 0-1.231-.786-2.325-4.237-4.103-4.852-2.325-6.867-4.684-6.867-8.615 0-4.41 3.45-8.069 9.43-8.069 2.938 0 4.988.445 6.116.958.273.17.341.444.341.683v4.684c0 .274-.17.445-.512.342-1.504-.957-3.724-1.538-5.945-1.538z" fill="#00C8FF"/></g><g fill-rule="nonzero"><g transform="translate(265 8)"><use fill="#000" filter="url(#o)" xlink:href="#p"/><use fill="#FDB300" fill-rule="evenodd" xlink:href="#p"/></g><path fill="#EA6C00" d="M282.786 37l26.125 50.987L265 37zM335.036 37l-26.125 50.987L352.823 37z"/><path fill="#FDAD00" d="M282.786 37h52.25l-26.125 50.987z"/><g><path fill="#FDD231" d="M308.911 8l-24.75 2.675-1.375 26.298zM308.911 8l24.75 2.675 1.375 26.298z"/><path fill="#FDAD00" d="M352.823 36.973L333.66 10.675l1.375 26.298zM265 36.973l19.161-26.298-1.375 26.298z"/><path fill="#FEEEB7" d="M308.911 8l-26.125 28.973h52.25z"/></g></g><g filter="url(#q)" transform="translate(543 8)" fill-rule="nonzero"><path d="M80 40c0 22.088-17.912 40-40 40S0 62.088 0 40 17.912 0 40 0s40 17.912 40 40z" fill="#4CAF50"/><path d="M39.699 0v40l16.12 8L38 80h1.699C61.97 80 80 62.106 80 40S61.971 0 39.699 0z" fill="#FFC107"/><path d="M80 40c0 22.088-17.912 40-40 40S0 62.088 0 40 17.912 0 40 0s40 17.912 40 40z" fill="#4CAF50"/><path d="M39.699 0v40l16.12 8L38 80h1.699C61.97 80 80 62.106 80 40S61.971 0 39.699 0z" fill="#FFC107"/><path d="M76 22H40.012v26l-6.052-2L6.298 18.328C13.398 7.188 25.708 0 40.012 0A40.334 40.334 0 0 1 76 22z" fill="#F44336"/><path fill="#DD2C00" d="M6.298 18.323L23.888 48 34 45.727z"/><path fill="#558B2F" d="M38 80l18-32.118L47.758 42z"/><path fill="#F9A825" d="M76 22H40.167L37 31z"/><path d="M58 40c0 9.938-8.062 18-18 18s-18-8.062-18-18 8.062-18 18-18 18 8.062 18 18z" fill="#FFF"/><path d="M54 40c0 7.734-6.266 14-14 14s-14-6.266-14-14 6.266-14 14-14 14 6.266 14 14z" fill="#2196F3"/></g><g transform="rotate(-9 102.996 8.409)"><use fill="#000" filter="url(#r)" xlink:href="#s"/><use fill="#F9F9F9" xlink:href="#s"/><path stroke="url(#t)" d="M.5 13.292h64.465v64.465H.5z"/></g><g transform="rotate(-9 188.67 -3.144)" fill="#D8D8D8"><circle cx=".752" cy=".752" r="1"/><circle cx="3.01" cy=".752" r="1"/><circle cx="5.267" cy=".752" r="1"/><circle cx="7.525" cy=".752" r="1"/><circle cx="9.782" cy=".752" r="1"/><circle cx="12.04" cy=".752" r="1"/><circle cx="14.297" cy=".752" r="1"/><circle cx="16.554" cy=".752" r="1"/><circle cx="18.812" cy=".752" r="1"/><circle cx="21.069" cy=".752" r="1"/><circle cx="23.327" cy=".752" r="1"/><circle cx="25.584" cy=".752" r="1"/><circle cx="27.842" cy=".752" r="1"/><circle cx="30.099" cy=".752" r="1"/><circle cx="32.356" cy=".752" r="1"/><circle cx="34.614" cy=".752" r="1"/><circle cx="36.871" cy=".752" r="1"/><circle cx="39.129" cy=".752" r="1"/><circle cx="41.386" cy=".752" r="1"/><circle cx="43.643" cy=".752" r="1"/><circle cx="45.901" cy=".752" r="1"/><circle cx="48.158" cy=".752" r="1"/><circle cx="50.416" cy=".752" r="1"/><circle cx="52.673" cy=".752" r="1"/><circle cx="54.931" cy=".752" r="1"/><circle cx="57.188" cy=".752" r="1"/><circle cx="59.445" cy=".752" r="1"/><circle cx="61.703" cy=".752" r="1"/><circle cx="63.96" cy=".752" r="1"/></g><g transform="rotate(-9 102.996 8.409)"><use fill="url(#u)" xlink:href="#v"/><path stroke="url(#w)" d="M.5.5h64.465v11.792H.5z"/></g><g stroke="#E0E0E0" stroke-linecap="square"><path d="M3.326 35.109l63.916-10.124M4.268 41.054l63.916-10.123M5.21 47l63.915-10.123M6.151 52.946l63.916-10.124M7.093 58.891l63.916-10.123M8.034 64.837L71.95 54.714M8.976 70.783l63.916-10.124M9.918 76.728l63.916-10.123M10.742 81.93l63.916-10.123M11.683 87.876L75.6 77.753"/></g></g></svg>